<svg width="65" height="64" viewBox="0 0 65 64" fill="none" xmlns="http://www.w3.org/2000/svg">
<path d="M52.6562 0C59.2837 0 64.6562 5.37258 64.6562 12V52C64.6562 58.6274 59.2837 64 52.6562 64H12.6562C6.02883 64 0.65625 58.6274 0.65625 52V12C0.65625 5.37258 6.02883 0 12.6562 0H52.6562Z" fill="#A855F7" fill-opacity="0.1"/>
<path d="M52.6562 0C59.2837 0 64.6562 5.37258 64.6562 12V52C64.6562 58.6274 59.2837 64 52.6562 64H12.6562C6.02883 64 0.65625 58.6274 0.65625 52V12C0.65625 5.37258 6.02883 0 12.6562 0H52.6562Z" />
<path d="M44.6562 48H20.6562V16H44.6562V48Z" />
<g clip-path="url(#clip0_2013_360)">
<path d="M20.6562 39.5C20.6562 40.3297 21.3266 41 22.1562 41H24.7203C25.2969 42.3266 26.6188 43.25 28.1562 43.25C29.6937 43.25 31.0156 42.3266 31.5922 41H43.1562C43.9859 41 44.6562 40.3297 44.6562 39.5C44.6562 38.6703 43.9859 38 43.1562 38H31.5922C31.0156 36.6734 29.6937 35.75 28.1562 35.75C26.6188 35.75 25.2969 36.6734 24.7203 38H22.1562C21.3266 38 20.6562 38.6703 20.6562 39.5ZM26.6562 39.5C26.6562 39.1022 26.8143 38.7206 27.0956 38.4393C27.3769 38.158 27.7584 38 28.1562 38C28.5541 38 28.9356 38.158 29.2169 38.4393C29.4982 38.7206 29.6562 39.1022 29.6562 39.5C29.6562 39.8978 29.4982 40.2794 29.2169 40.5607C28.9356 40.842 28.5541 41 28.1562 41C27.7584 41 27.3769 40.842 27.0956 40.5607C26.8143 40.2794 26.6562 39.8978 26.6562 39.5ZM35.6562 32C35.6562 31.6022 35.8143 31.2206 36.0956 30.9393C36.3769 30.658 36.7584 30.5 37.1562 30.5C37.5541 30.5 37.9356 30.658 38.2169 30.9393C38.4982 31.2206 38.6562 31.6022 38.6562 32C38.6562 32.3978 38.4982 32.7794 38.2169 33.0607C37.9356 33.342 37.5541 33.5 37.1562 33.5C36.7584 33.5 36.3769 33.342 36.0956 33.0607C35.8143 32.7794 35.6562 32.3978 35.6562 32ZM37.1562 28.25C35.6188 28.25 34.2969 29.1734 33.7203 30.5H22.1562C21.3266 30.5 20.6562 31.1703 20.6562 32C20.6562 32.8297 21.3266 33.5 22.1562 33.5H33.7203C34.2969 34.8266 35.6188 35.75 37.1562 35.75C38.6937 35.75 40.0156 34.8266 40.5922 33.5H43.1562C43.9859 33.5 44.6562 32.8297 44.6562 32C44.6562 31.1703 43.9859 30.5 43.1562 30.5H40.5922C40.0156 29.1734 38.6937 28.25 37.1562 28.25ZM29.6562 26C29.2584 26 28.8769 25.842 28.5956 25.5607C28.3143 25.2794 28.1562 24.8978 28.1562 24.5C28.1562 24.1022 28.3143 23.7206 28.5956 23.4393C28.8769 23.158 29.2584 23 29.6562 23C30.0541 23 30.4356 23.158 30.7169 23.4393C30.9982 23.7206 31.1562 24.1022 31.1562 24.5C31.1562 24.8978 30.9982 25.2794 30.7169 25.5607C30.4356 25.842 30.0541 26 29.6562 26ZM33.0922 23C32.5156 21.6734 31.1937 20.75 29.6562 20.75C28.1188 20.75 26.7969 21.6734 26.2203 23H22.1562C21.3266 23 20.6562 23.6703 20.6562 24.5C20.6562 25.3297 21.3266 26 22.1562 26H26.2203C26.7969 27.3266 28.1188 28.25 29.6562 28.25C31.1937 28.25 32.5156 27.3266 33.0922 26H43.1562C43.9859 26 44.6562 25.3297 44.6562 24.5C44.6562 23.6703 43.9859 23 43.1562 23H33.0922Z" fill="#C084FC"/>
</g>
<defs>
<clipPath id="clip0_2013_360">
<path d="M20.6562 20H44.6562V44H20.6562V20Z" fill="white"/>
</clipPath>
</defs>
</svg>
