<svg width="65" height="64" viewBox="0 0 65 64" fill="none" xmlns="http://www.w3.org/2000/svg">
<path d="M52.3281 0C58.9555 0 64.3281 5.37258 64.3281 12V52C64.3281 58.6274 58.9555 64 52.3281 64H12.3281C5.70071 64 0.328125 58.6274 0.328125 52V12C0.328125 5.37258 5.70071 0 12.3281 0H52.3281Z" fill="#FB923C" fill-opacity="0.1"/>
<path d="M52.3281 0C58.9555 0 64.3281 5.37258 64.3281 12V52C64.3281 58.6274 58.9555 64 52.3281 64H12.3281C5.70071 64 0.328125 58.6274 0.328125 52V12C0.328125 5.37258 5.70071 0 12.3281 0H52.3281Z" />
<path d="M44.3281 48H20.3281V16H44.3281V48Z" />
<g clip-path="url(#clip0_2013_357)">
<path d="M32.3281 20C35.5107 20 38.563 21.2643 40.8134 23.5147C43.0638 25.7652 44.3281 28.8174 44.3281 32C44.3281 35.1826 43.0638 38.2348 40.8134 40.4853C38.563 42.7357 35.5107 44 32.3281 44C29.1455 44 26.0933 42.7357 23.8428 40.4853C21.5924 38.2348 20.3281 35.1826 20.3281 32C20.3281 28.8174 21.5924 25.7652 23.8428 23.5147C26.0933 21.2643 29.1455 20 32.3281 20ZM31.2031 25.625V32C31.2031 32.375 31.3906 32.7266 31.7047 32.9375L36.2047 35.9375C36.7203 36.2844 37.4187 36.1437 37.7656 35.6234C38.1125 35.1031 37.9719 34.4094 37.4516 34.0625L33.4531 31.4V25.625C33.4531 25.0016 32.9516 24.5 32.3281 24.5C31.7047 24.5 31.2031 25.0016 31.2031 25.625Z" fill="#FB923C"/>
</g>
<defs>
<clipPath id="clip0_2013_357">
<path d="M20.3281 20H44.3281V44H20.3281V20Z" fill="white"/>
</clipPath>
</defs>
</svg>
