<svg width="21" height="19" viewBox="0 0 21 19" fill="none" xmlns="http://www.w3.org/2000/svg">
<g clip-path="url(#clip0_2013_213)">
<path d="M0.71875 1.09375C0.71875 0.626172 1.09492 0.25 1.5625 0.25H3.16211C3.93555 0.25 4.62109 0.7 4.94102 1.375H19.3902C20.3148 1.375 20.9898 2.25391 20.7473 3.14688L19.3059 8.50117C19.007 9.60508 18.0051 10.375 16.8625 10.375H6.71992L6.90977 11.377C6.98711 11.7742 7.33516 12.0625 7.73945 12.0625H17.875C18.3426 12.0625 18.7188 12.4387 18.7188 12.9062C18.7188 13.3738 18.3426 13.75 17.875 13.75H7.73945C6.52305 13.75 5.47891 12.8852 5.25391 11.6934L3.43984 2.16602C3.41523 2.03242 3.29922 1.9375 3.16211 1.9375H1.5625C1.09492 1.9375 0.71875 1.56133 0.71875 1.09375ZM5.21875 16.5625C5.21875 16.3409 5.2624 16.1215 5.3472 15.9167C5.43201 15.712 5.55631 15.526 5.71301 15.3693C5.86971 15.2126 6.05573 15.0883 6.26047 15.0035C6.46521 14.9186 6.68464 14.875 6.90625 14.875C7.12786 14.875 7.34729 14.9186 7.55203 15.0035C7.75677 15.0883 7.94279 15.2126 8.09949 15.3693C8.25619 15.526 8.38049 15.712 8.4653 15.9167C8.5501 16.1215 8.59375 16.3409 8.59375 16.5625C8.59375 16.7841 8.5501 17.0035 8.4653 17.2083C8.38049 17.413 8.25619 17.599 8.09949 17.7557C7.94279 17.9124 7.75677 18.0367 7.55203 18.1215C7.34729 18.2064 7.12786 18.25 6.90625 18.25C6.68464 18.25 6.46521 18.2064 6.26047 18.1215C6.05573 18.0367 5.86971 17.9124 5.71301 17.7557C5.55631 17.599 5.43201 17.413 5.3472 17.2083C5.2624 17.0035 5.21875 16.7841 5.21875 16.5625ZM17.0312 14.875C17.4788 14.875 17.908 15.0528 18.2245 15.3693C18.541 15.6857 18.7187 16.1149 18.7188 16.5625C18.7187 17.0101 18.541 17.4393 18.2245 17.7557C17.908 18.0722 17.4788 18.25 17.0312 18.25C16.5837 18.25 16.1545 18.0722 15.838 17.7557C15.5215 17.4393 15.3438 17.0101 15.3438 16.5625C15.3438 16.1149 15.5215 15.6857 15.838 15.3693C16.1545 15.0528 16.5837 14.875 17.0312 14.875Z" fill="#D1D5DB"/>
</g>
<defs>
<clipPath id="clip0_2013_213">
<path d="M0.71875 0.25H20.9688V18.25H0.71875V0.25Z" fill="white"/>
</clipPath>
</defs>
</svg>
