<svg width="64" height="64" viewBox="0 0 64 64" fill="none" xmlns="http://www.w3.org/2000/svg">
<path d="M52 0C58.6274 0 64 5.37258 64 12V52C64 58.6274 58.6274 64 52 64H12C5.37258 64 0 58.6274 0 52V12C0 5.37258 5.37258 0 12 0H52Z" fill="#9B59B6" fill-opacity="0.2"/>
<path d="M52 0C58.6274 0 64 5.37258 64 12V52C64 58.6274 58.6274 64 52 64H12C5.37258 64 0 58.6274 0 52V12C0 5.37258 5.37258 0 12 0H52Z" />
<path d="M44 48H20V16H44V48Z" />
<g clip-path="url(#clip0_2014_1885)">
<path d="M28.1891 21.1141C29.0094 19.7969 30.4532 19 32.0001 19C33.5469 19 34.9907 19.7969 35.811 21.1141L37.6204 24.0063L38.886 23.275C39.2798 23.0453 39.7719 23.0781 40.1329 23.3547C40.4938 23.6312 40.6532 24.1 40.536 24.5406L39.4391 28.6375C39.2798 29.2375 38.661 29.5938 38.061 29.4344L33.9641 28.3375C33.5235 28.2203 33.2001 27.85 33.1391 27.4C33.0782 26.95 33.2985 26.5047 33.6923 26.2797L35.0235 25.5109L33.2657 22.7031C32.9938 22.2672 32.5157 22 32.0001 22C31.4844 22 31.0063 22.2672 30.7344 22.7031L29.9141 24.0156C29.4829 24.7094 28.5735 24.9297 27.8704 24.5078C27.1532 24.0766 26.9235 23.1391 27.3688 22.4266L28.1891 21.1141ZM40.1329 30.8078C40.836 30.3859 41.7454 30.6062 42.1766 31.3L43.3204 33.1328C43.761 33.8406 43.9954 34.6516 44.0048 35.4859C44.0188 37.975 42.0032 40.0047 39.5141 40.0047L35.0001 40V41.5C35.0001 41.9547 34.7282 42.3672 34.3063 42.5406C33.8844 42.7141 33.4016 42.6203 33.0782 42.2969L30.0782 39.2969C29.6376 38.8563 29.6376 38.1438 30.0782 37.7078L33.0782 34.7078C33.4016 34.3844 33.8844 34.2906 34.3063 34.4641C34.7282 34.6375 35.0001 35.05 35.0001 35.5047V37.0047H39.5094C40.3344 37.0047 41.0048 36.3297 41.0001 35.5047C41.0001 35.2281 40.9204 34.9562 40.7751 34.7219L39.6313 32.8891C39.186 32.1766 39.411 31.2391 40.1329 30.8078ZM23.0423 29.3547L21.6876 28.5719C21.2938 28.3422 21.0735 27.9016 21.1344 27.4516C21.1954 27.0016 21.5188 26.6313 21.9594 26.5141L26.0563 25.4172C26.6563 25.2578 27.2751 25.6141 27.4344 26.2141L28.5313 30.3062C28.6485 30.7469 28.4891 31.2109 28.1282 31.4922C27.7673 31.7734 27.2751 31.8016 26.8813 31.5719L25.6391 30.8547L23.2251 34.7172C23.0798 34.9516 23.0001 35.2234 23.0001 35.5C22.9954 36.325 23.6657 37 24.4907 37H26.0001C26.8298 37 27.5001 37.6703 27.5001 38.5C27.5001 39.3297 26.8298 40 26.0001 40H24.4907C22.0016 40 19.986 37.975 20.0001 35.4813C20.0048 34.6469 20.2391 33.8359 20.6844 33.1281L23.0423 29.3547Z" fill="#9B59B6"/>
</g>
<defs>
<clipPath id="clip0_2014_1885">
<path d="M20 19H44V43H20V19Z" fill="white"/>
</clipPath>
</defs>
</svg>
