<svg width="40" height="40" viewBox="0 0 40 40" fill="none" xmlns="http://www.w3.org/2000/svg">
<path d="M20 0C31.0457 0 40 8.95431 40 20C40 31.0457 31.0457 40 20 40C8.95431 40 0 31.0457 0 20C0 8.95431 8.95431 0 20 0Z" fill="url(#paint0_linear_2013_70)"/>
<path d="M20 0C31.0457 0 40 8.95431 40 20C40 31.0457 31.0457 40 20 40C8.95431 40 0 31.0457 0 20C0 8.95431 8.95431 0 20 0Z"/>
<path d="M29 34H11V6H29V34Z" />
<path d="M29 28.25H11V10.25H29V28.25Z" />
<path d="M20.5625 13.625C17.7992 13.625 15.4613 15.4355 14.6668 17.9316C15.848 17.334 17.1805 17 18.5938 17H21.6875C21.9969 17 22.25 17.2531 22.25 17.5625C22.25 17.8719 21.9969 18.125 21.6875 18.125H21.125H18.5938C18.0102 18.125 17.4441 18.1918 16.8992 18.3148C15.9887 18.5223 15.1414 18.8914 14.3891 19.3941C12.3465 20.7547 11 23.0785 11 25.7187V26.2812C11 26.7488 11.3762 27.125 11.8438 27.125C12.3113 27.125 12.6875 26.7488 12.6875 26.2812V25.7187C12.6875 24.0066 13.4152 22.4668 14.5789 21.3875C15.275 24.0418 17.6902 26 20.5625 26H20.5977C25.2418 25.9754 29 21.398 29 15.7555C29 14.2578 28.7363 12.834 28.2582 11.5508C28.1668 11.3082 27.8117 11.3187 27.6887 11.5473C27.0277 12.7848 25.7199 13.625 24.2188 13.625H20.5625Z" fill="white"/>
<defs>
<linearGradient id="paint0_linear_2013_70" x1="0" y1="20" x2="40" y2="20" gradientUnits="userSpaceOnUse">
<stop stop-color="#4ADE80"/>
<stop offset="1" stop-color="#16A34A"/>
</linearGradient>
</defs>
</svg>
