<svg width="56" height="56" viewBox="0 0 56 56" fill="none" xmlns="http://www.w3.org/2000/svg">
<path d="M40 0C48.8366 0 56 7.16344 56 16V40C56 48.8366 48.8366 56 40 56H16C7.16344 56 3.8658e-07 48.8366 0 40V16C0 7.16344 7.16344 3.86555e-07 16 0H40Z" fill="#10B981"/>
<path d="M40 0C48.8366 0 56 7.16344 56 16V40C56 48.8366 48.8366 56 40 56H16C7.16344 56 3.8658e-07 48.8366 0 40V16C0 7.16344 7.16344 3.86555e-07 16 0H40Z" />
<path d="M38 42H18V14H38V42Z" />
<g clip-path="url(#clip0_2014_2102)">
<path d="M24.4414 18.4608C24.1406 17.7343 23.3477 17.3476 22.5898 17.5546L19.1523 18.4921C18.4727 18.6796 18 19.2968 18 19.9999C18 29.664 25.8359 37.4999 35.5 37.4999C36.2031 37.4999 36.8203 37.0272 37.0078 36.3476L37.9453 32.9101C38.1523 32.1522 37.7656 31.3593 37.0391 31.0585L33.2891 29.496C32.6523 29.2304 31.9141 29.414 31.4805 29.9491L29.9023 31.8749C27.1523 30.5741 24.9258 28.3476 23.625 25.5976L25.5508 24.0233C26.0859 23.5858 26.2695 22.8515 26.0039 22.2147L24.4414 18.4647V18.4608Z" fill="white"/>
</g>
<defs>
<clipPath id="clip0_2014_2102">
<path d="M18 17.5H38V37.5H18V17.5Z" fill="white"/>
</clipPath>
</defs>
</svg>
