<svg width="56" height="56" viewBox="0 0 56 56" fill="none" xmlns="http://www.w3.org/2000/svg">
<path d="M40 0C48.8366 0 56 7.16344 56 16V40C56 48.8366 48.8366 56 40 56H16C7.16344 56 3.8658e-07 48.8366 0 40V16C0 7.16344 7.16344 3.86555e-07 16 0H40Z" fill="#F59E0B"/>
<path d="M40 0C48.8366 0 56 7.16344 56 16V40C56 48.8366 48.8366 56 40 56H16C7.16344 56 3.8658e-07 48.8366 0 40V16C0 7.16344 7.16344 3.86555e-07 16 0H40Z" />
<path d="M38 42H18V14H38V42Z" />
<path d="M38 37.5H18V17.5H38V37.5Z"/>
<path d="M19.875 20C18.8398 20 18 20.8398 18 21.875C18 22.4648 18.2773 23.0195 18.75 23.375L27.25 29.75C27.6953 30.082 28.3047 30.082 28.75 29.75L37.25 23.375C37.7227 23.0195 38 22.4648 38 21.875C38 20.8398 37.1602 20 36.125 20H19.875ZM18 24.375V32.5C18 33.8789 19.1211 35 20.5 35H35.5C36.8789 35 38 33.8789 38 32.5V24.375L29.5 30.75C28.6094 31.418 27.3906 31.418 26.5 30.75L18 24.375Z" fill="white"/>
</svg>
