<svg width="56" height="56" viewBox="0 0 56 56" fill="none" xmlns="http://www.w3.org/2000/svg">
<path d="M40 0C48.8366 0 56 7.16344 56 16V40C56 48.8366 48.8366 56 40 56H16C7.16344 56 3.8658e-07 48.8366 0 40V16C0 7.16344 7.16344 3.86555e-07 16 0H40Z" fill="#EF4444"/>
<path d="M40 0C48.8366 0 56 7.16344 56 16V40C56 48.8366 48.8366 56 40 56H16C7.16344 56 3.8658e-07 48.8366 0 40V16C0 7.16344 7.16344 3.86555e-07 16 0H40Z" />
<path d="M35.5 42H20.5V14H35.5V42Z" />
<g clip-path="url(#clip0_2014_2106)">
<path d="M28.9258 37C30.9297 34.4922 35.5 28.4141 35.5 25C35.5 20.8594 32.1406 17.5 28 17.5C23.8594 17.5 20.5 20.8594 20.5 25C20.5 28.4141 25.0703 34.4922 27.0742 37C27.5547 37.5977 28.4453 37.5977 28.9258 37ZM28 22.5C28.663 22.5 29.2989 22.7634 29.7678 23.2322C30.2366 23.7011 30.5 24.337 30.5 25C30.5 25.663 30.2366 26.2989 29.7678 26.7678C29.2989 27.2366 28.663 27.5 28 27.5C27.337 27.5 26.7011 27.2366 26.2322 26.7678C25.7634 26.2989 25.5 25.663 25.5 25C25.5 24.337 25.7634 23.7011 26.2322 23.2322C26.7011 22.7634 27.337 22.5 28 22.5Z" fill="white"/>
</g>
<defs>
<clipPath id="clip0_2014_2106">
<path d="M20.5 17.5H35.5V37.5H20.5V17.5Z" fill="white"/>
</clipPath>
</defs>
</svg>
