<svg width="17" height="23" viewBox="0 0 17 23" fill="none" xmlns="http://www.w3.org/2000/svg">
<path d="M16.625 23H0.625V0H16.625V23Z"/>
<g clip-path="url(#clip0_2014_2090)">
<path d="M16.1906 3.17512C16.5063 3.39387 16.6719 3.77199 16.6125 4.15012L14.6125 17.1501C14.5656 17.4532 14.3813 17.7189 14.1125 17.8689C13.8438 18.0189 13.5219 18.0376 13.2375 17.9189L9.50002 16.3657L7.3594 18.6814C7.08127 18.9845 6.64377 19.0845 6.2594 18.9345C5.87502 18.7845 5.62502 18.4126 5.62502 18.0001V15.3876C5.62502 15.2626 5.6719 15.1439 5.75627 15.0532L10.9938 9.33762C11.175 9.14074 11.1688 8.83762 10.9813 8.65012C10.7938 8.46262 10.4906 8.45012 10.2938 8.62824L3.93752 14.2751L1.17815 12.8939C0.846895 12.7282 0.634395 12.397 0.62502 12.0282C0.615645 11.6595 0.809395 11.3157 1.12815 11.1314L15.1281 3.13137C15.4625 2.94074 15.875 2.95949 16.1906 3.17512Z" fill="white"/>
</g>
<defs>
<clipPath id="clip0_2014_2090">
<path d="M0.625 3H16.625V19H0.625V3Z" fill="white"/>
</clipPath>
</defs>
</svg>
