<svg width="64" height="64" viewBox="0 0 64 64" fill="none" xmlns="http://www.w3.org/2000/svg">
<path d="M52 0C58.6274 0 64 5.37258 64 12V52C64 58.6274 58.6274 64 52 64H12C5.37258 64 0 58.6274 0 52V12C0 5.37258 5.37258 0 12 0H52Z" fill="#4ADE80" fill-opacity="0.1"/>
<path d="M52 0C58.6274 0 64 5.37258 64 12V52C64 58.6274 58.6274 64 52 64H12C5.37258 64 0 58.6274 0 52V12C0 5.37258 5.37258 0 12 0H52Z" />
<path d="M44 48H20V16H44V48Z" />
<g clip-path="url(#clip0_2013_354)">
<path d="M44 21.5C44 26.825 40.0344 31.2266 34.8969 31.9062C34.5641 29.4031 33.4625 27.1437 31.8359 25.3766C33.6312 22.1703 37.0625 20 41 20H42.5C43.3297 20 44 20.6703 44 21.5ZM20 24.5C20 23.6703 20.6703 23 21.5 23H23C28.7984 23 33.5 27.7016 33.5 33.5V35V42.5C33.5 43.3297 32.8297 44 32 44C31.1703 44 30.5 43.3297 30.5 42.5V35C24.7016 35 20 30.2984 20 24.5Z" fill="#4ADE80"/>
</g>
<defs>
<clipPath id="clip0_2013_354">
<path d="M20 20H44V44H20V20Z" fill="white"/>
</clipPath>
</defs>
</svg>
