<svg width="48" height="48" viewBox="0 0 48 48" fill="none" xmlns="http://www.w3.org/2000/svg">
<path d="M36 0C42.6274 0 48 5.37258 48 12V36C48 42.6274 42.6274 48 36 48H12C5.37258 48 0 42.6274 0 36V12C0 5.37258 5.37258 0 12 0H36Z" fill="#2563EB"/>
<path d="M36 0C42.6274 0 48 5.37258 48 12V36C48 42.6274 42.6274 48 36 48H12C5.37258 48 0 42.6274 0 36V12C0 5.37258 5.37258 0 12 0H36Z" />
<path d="M32 36H16V12H32V36Z" />
<g clip-path="url(#clip0_2014_2068)">
<path d="M31.75 23C31.75 18.7188 28.2812 15.25 24 15.25C19.7188 15.25 16.25 18.7188 16.25 23C16.25 26.8681 19.0841 30.0744 22.7891 30.6562V25.2403H20.8203V23H22.7891V21.2925C22.7891 19.3503 23.9453 18.2775 25.7163 18.2775C26.5644 18.2775 27.4513 18.4288 27.4513 18.4288V20.335H26.4738C25.5113 20.335 25.2109 20.9325 25.2109 21.5453V23H27.3603L27.0166 25.2403H25.2109V30.6562C28.9159 30.0744 31.75 26.8681 31.75 23Z" fill="white"/>
</g>
<defs>
<clipPath id="clip0_2014_2068">
<path d="M16 15H32V31H16V15Z" fill="white"/>
</clipPath>
</defs>
</svg>
