<svg width="56" height="57" viewBox="0 0 56 57" fill="none" xmlns="http://www.w3.org/2000/svg">
<path d="M16 1.25H40C48.5604 1.25 55.5 8.18959 55.5 16.75V40.75C55.5 49.3104 48.5604 56.25 40 56.25H16C7.43959 56.25 0.5 49.3104 0.5 40.75V16.75L0.504883 16.3496C0.713873 8.10729 7.35729 1.46387 15.5996 1.25488L16 1.25Z" fill="#d9d9d9"/>
<path d="M16 1.25H40C48.5604 1.25 55.5 8.18959 55.5 16.75V40.75C55.5 49.3104 48.5604 56.25 40 56.25H16C7.43959 56.25 0.5 49.3104 0.5 40.75V16.75L0.504883 16.3496C0.713873 8.10729 7.35729 1.46387 15.5996 1.25488L16 1.25Z" />
<path d="M36.75 42.75H19.25V14.75H36.75V42.75Z" />
<g clip-path="url(#clip0_2014_2225)">
<path d="M28.0039 23.7578C25.5195 23.7578 23.5156 25.7617 23.5156 28.2461C23.5156 30.7305 25.5195 32.7344 28.0039 32.7344C30.4883 32.7344 32.4922 30.7305 32.4922 28.2461C32.4922 25.7617 30.4883 23.7578 28.0039 23.7578ZM28.0039 31.1641C26.3984 31.1641 25.0859 29.8555 25.0859 28.2461C25.0859 26.6367 26.3945 25.3281 28.0039 25.3281C29.6133 25.3281 30.9219 26.6367 30.9219 28.2461C30.9219 29.8555 29.6094 31.1641 28.0039 31.1641ZM33.7227 23.5742C33.7227 24.1562 33.2539 24.6211 32.6758 24.6211C32.0938 24.6211 31.6289 24.1523 31.6289 23.5742C31.6289 22.9961 32.0977 22.5273 32.6758 22.5273C33.2539 22.5273 33.7227 22.9961 33.7227 23.5742ZM36.6953 24.6367C36.6289 23.2344 36.3086 21.9922 35.2813 20.9687C34.2578 19.9453 33.0156 19.625 31.6133 19.5547C30.168 19.4727 25.8359 19.4727 24.3906 19.5547C22.9922 19.6211 21.75 19.9414 20.7227 20.9648C19.6953 21.9883 19.3789 23.2305 19.3086 24.6328C19.2266 26.0781 19.2266 30.4102 19.3086 31.8555C19.375 33.2578 19.6953 34.5 20.7227 35.5234C21.75 36.5469 22.9883 36.8672 24.3906 36.9375C25.8359 37.0195 30.168 37.0195 31.6133 36.9375C33.0156 36.8711 34.2578 36.5508 35.2813 35.5234C36.3047 34.5 36.625 33.2578 36.6953 31.8555C36.7773 30.4102 36.7773 26.082 36.6953 24.6367ZM34.8281 33.4062C34.5234 34.1719 33.9336 34.7617 33.1641 35.0703C32.0117 35.5273 29.2773 35.4219 28.0039 35.4219C26.7305 35.4219 23.9922 35.5234 22.8437 35.0703C22.0781 34.7656 21.4883 34.1758 21.1797 33.4062C20.7227 32.2539 20.8281 29.5195 20.8281 28.2461C20.8281 26.9727 20.7266 24.2344 21.1797 23.0859C21.4844 22.3203 22.0742 21.7305 22.8437 21.4219C23.9961 20.9648 26.7305 21.0703 28.0039 21.0703C29.2773 21.0703 32.0156 20.9687 33.1641 21.4219C33.9297 21.7266 34.5195 22.3164 34.8281 23.0859C35.2852 24.2383 35.1797 26.9727 35.1797 28.2461C35.1797 29.5195 35.2852 32.2578 34.8281 33.4062Z" fill="#eb6592ff"/>
</g>
<defs>
<clipPath id="clip0_2014_2225">
<path d="M19.25 18.25H36.75V38.25H19.25V18.25Z" fill="white"/>
</clipPath>
</defs>
</svg>
