<svg width="48" height="48" viewBox="0 0 48 48" fill="none" xmlns="http://www.w3.org/2000/svg">
<path d="M36 0C42.6274 0 48 5.37258 48 12V36C48 42.6274 42.6274 48 36 48H12C5.37258 48 0 42.6274 0 36V12C0 5.37258 5.37258 0 12 0H36Z" fill="#60A5FA"/>
<path d="M36 0C42.6274 0 48 5.37258 48 12V36C48 42.6274 42.6274 48 36 48H12C5.37258 48 0 42.6274 0 36V12C0 5.37258 5.37258 0 12 0H36Z" />
<path d="M32 36H16V12H32V36Z" />
<path d="M32 31H16V15H32V31Z" />
<path d="M30.3553 19.7415C30.3655 19.8836 30.3655 20.0258 30.3655 20.1679C30.3655 24.5029 27.066 29.4978 21.0355 29.4978C19.1777 29.4978 17.4518 28.9597 16 28.0258C16.264 28.0562 16.5177 28.0664 16.7919 28.0664C18.3248 28.0664 19.736 27.5486 20.8629 26.6654C19.4213 26.6349 18.2132 25.6907 17.7969 24.3912C18 24.4217 18.203 24.442 18.4162 24.442C18.7107 24.442 19.0051 24.4014 19.2792 24.3303C17.7767 24.0257 16.6497 22.706 16.6497 21.1121V21.0715C17.0863 21.3151 17.5939 21.4674 18.1319 21.4877C17.2487 20.8988 16.67 19.8938 16.67 18.7567C16.67 18.1476 16.8324 17.5892 17.1167 17.1019C18.7309 19.0917 21.1573 20.3912 23.8781 20.5334C23.8274 20.2897 23.7969 20.0359 23.7969 19.7821C23.7969 17.975 25.2588 16.5029 27.0761 16.5029C28.0202 16.5029 28.873 16.8989 29.472 17.5385C30.2131 17.3963 30.9238 17.1222 31.5533 16.7466C31.3096 17.508 30.7918 18.1476 30.1116 18.5537C30.7715 18.4826 31.4111 18.2999 31.9999 18.0461C31.5533 18.6958 30.9949 19.2745 30.3553 19.7415Z" fill="white"/>
</svg>
