<svg width="48" height="48" viewBox="0 0 48 48" fill="none" xmlns="http://www.w3.org/2000/svg">
<path d="M36 0C42.6274 0 48 5.37258 48 12V36C48 42.6274 42.6274 48 36 48H12C5.37258 48 0 42.6274 0 36V12C0 5.37258 5.37258 0 12 0H36Z" fill="#DC2626"/>
<path d="M36 0C42.6274 0 48 5.37258 48 12V36C48 42.6274 42.6274 48 36 48H12C5.37258 48 0 42.6274 0 36V12C0 5.37258 5.37258 0 12 0H36Z" />
<path d="M33 36H15V12H33V36Z" />
<path d="M33 31H15V15H33V31Z" />
<path d="M32.1767 18.8776C31.9804 18.1385 31.4021 17.5565 30.6678 17.3589C29.3369 17 24 17 24 17C24 17 18.6631 17 17.3321 17.3589C16.5979 17.5565 16.0196 18.1385 15.8233 18.8776C15.4666 20.2172 15.4666 23.0121 15.4666 23.0121C15.4666 23.0121 15.4666 25.8071 15.8233 27.1467C16.0196 27.8857 16.5979 28.4435 17.3321 28.6411C18.6631 29 24 29 24 29C24 29 29.3369 29 30.6678 28.6411C31.4021 28.4435 31.9804 27.8857 32.1767 27.1467C32.5333 25.8071 32.5333 23.0121 32.5333 23.0121C32.5333 23.0121 32.5333 20.2172 32.1767 18.8776ZM22.2545 25.5497V20.4745L26.7151 23.0122L22.2545 25.5497Z" fill="white"/>
</svg>
