<svg width="64" height="64" viewBox="0 0 64 64" fill="none" xmlns="http://www.w3.org/2000/svg">
<path d="M52 0C58.6274 0 64 5.37258 64 12V52C64 58.6274 58.6274 64 52 64H12C5.37258 64 0 58.6274 0 52V12C0 5.37258 5.37258 0 12 0H52Z" fill="#4ECDC4" fill-opacity="0.2"/>
<path d="M52 0C58.6274 0 64 5.37258 64 12V52C64 58.6274 58.6274 64 52 64H12C5.37258 64 0 58.6274 0 52V12C0 5.37258 5.37258 0 12 0H52Z" />
<path d="M44 48H20V16H44V48Z" />
<g clip-path="url(#clip0_2014_1882)">
<path d="M22.2312 33.081L30.7016 40.9888C31.0531 41.317 31.5172 41.4998 32 41.4998C32.4828 41.4998 32.9469 41.317 33.2984 40.9888L41.7687 33.081C43.1938 31.7545 44 29.8935 44 27.9482V27.6763C44 24.3998 41.6328 21.606 38.4031 21.067C36.2656 20.7107 34.0906 21.4091 32.5625 22.9373L32 23.4998L31.4375 22.9373C29.9094 21.4091 27.7344 20.7107 25.5969 21.067C22.3672 21.606 20 24.3998 20 27.6763V27.9482C20 29.8935 20.8062 31.7545 22.2312 33.081Z" fill="#4ECDC4"/>
</g>
<defs>
<clipPath id="clip0_2014_1882">
<path d="M20 19H44V43H20V19Z" fill="white"/>
</clipPath>
</defs>
</svg>
