<svg width="64" height="64" viewBox="0 0 64 64" fill="none" xmlns="http://www.w3.org/2000/svg">
<path d="M52 0C58.6274 0 64 5.37258 64 12V52C64 58.6274 58.6274 64 52 64H12C5.37258 64 0 58.6274 0 52V12C0 5.37258 5.37258 0 12 0H52Z" fill="#FF6B35" fill-opacity="0.2"/>
<path d="M52 0C58.6274 0 64 5.37258 64 12V52C64 58.6274 58.6274 64 52 64H12C5.37258 64 0 58.6274 0 52V12C0 5.37258 5.37258 0 12 0H52Z" />
<path d="M44 48H20V16H44V48Z" />
<g clip-path="url(#clip0_2014_1879)">
<path d="M44 20.5C44 25.825 40.0344 30.2266 34.8969 30.9062C34.5641 28.4031 33.4625 26.1437 31.8359 24.3766C33.6313 21.1703 37.0625 19 41 19H42.5C43.3297 19 44 19.6703 44 20.5ZM20 23.5C20 22.6703 20.6703 22 21.5 22H23C28.7984 22 33.5 26.7016 33.5 32.5V34V41.5C33.5 42.3297 32.8297 43 32 43C31.1703 43 30.5 42.3297 30.5 41.5V34C24.7016 34 20 29.2984 20 23.5Z" fill="#FF6B35"/>
</g>
<defs>
<clipPath id="clip0_2014_1879">
<path d="M20 19H44V43H20V19Z" fill="white"/>
</clipPath>
</defs>
</svg>
