<svg width="171" height="184" viewBox="0 0 171 184" fill="none" xmlns="http://www.w3.org/2000/svg">
<g filter="url(#filter0_d_2014_1878)">
<path d="M50 41C50 32.1634 57.1634 25 66 25H104.5C113.337 25 120.5 32.1634 120.5 41V93C120.5 101.837 113.337 109 104.5 109H66C57.1634 109 50 101.837 50 93V41Z" fill="#FF6B35"/>
<path d="M96.5 88H74V45H96.5V88Z" />
<g clip-path="url(#clip0_2014_1878)">
<path d="M84.1837 51.0723C84.8282 50.6445 85.672 50.6445 86.3165 51.0723L87.3595 51.7578C87.711 51.9863 88.1212 52.0977 88.5372 52.0742L89.7853 51.998C90.5587 51.9512 91.2853 52.373 91.631 53.0645L92.1935 54.1836C92.381 54.5586 92.6856 54.8574 93.0548 55.0449L94.1856 55.6133C94.8771 55.959 95.2989 56.6855 95.2521 57.459L95.1759 58.707C95.1524 59.123 95.2638 59.5391 95.4923 59.8848L96.1837 60.9277C96.6114 61.5723 96.6114 62.416 96.1837 63.0605L95.4923 64.1094C95.2638 64.4609 95.1524 64.8711 95.1759 65.2871L95.2521 66.5352C95.2989 67.3086 94.8771 68.0352 94.1856 68.3809L93.0665 68.9434C92.6915 69.1309 92.3927 69.4355 92.2052 69.8047L91.6368 70.9355C91.2911 71.627 90.5646 72.0488 89.7911 72.002L88.5431 71.9258C88.1271 71.9023 87.711 72.0137 87.3653 72.2422L86.3224 72.9336C85.6778 73.3613 84.8341 73.3613 84.1896 72.9336L83.1407 72.2422C82.7892 72.0137 82.379 71.9023 81.963 71.9258L80.7149 72.002C79.9415 72.0488 79.2149 71.627 78.8692 70.9355L78.3067 69.8164C78.1192 69.4414 77.8146 69.1426 77.4454 68.9551L76.3146 68.3867C75.6231 68.041 75.2013 67.3145 75.2481 66.541L75.3243 65.293C75.3478 64.877 75.2364 64.4609 75.0079 64.1152L74.3224 63.0664C73.8946 62.4219 73.8946 61.5781 74.3224 60.9336L75.0079 59.8906C75.2364 59.5391 75.3478 59.1289 75.3243 58.7129L75.2481 57.4648C75.2013 56.6914 75.6231 55.9648 76.3146 55.6191L77.4337 55.0566C77.8087 54.8633 78.1134 54.5586 78.3009 54.1836L78.8634 53.0645C79.2091 52.373 79.9356 51.9512 80.7091 51.998L81.9571 52.0742C82.3731 52.0977 82.7892 51.9863 83.1349 51.7578L84.1837 51.0723ZM89.9376 62C89.9376 60.7568 89.4437 59.5645 88.5647 58.6854C87.6856 57.8064 86.4933 57.3125 85.2501 57.3125C84.0069 57.3125 82.8146 57.8064 81.9355 58.6854C81.0565 59.5645 80.5626 60.7568 80.5626 62C80.5626 63.2432 81.0565 64.4355 81.9355 65.3146C82.8146 66.1936 84.0069 66.6875 85.2501 66.6875C86.4933 66.6875 87.6856 66.1936 88.5647 65.3146C89.4437 64.4355 89.9376 63.2432 89.9376 62ZM74.0763 76.6367L76.6017 70.6309C76.6134 70.6367 76.6192 70.6426 76.6251 70.6543L77.1876 71.7734C77.8731 73.1328 79.297 73.959 80.8204 73.8711L82.0685 73.7949C82.0802 73.7949 82.0978 73.7949 82.1095 73.8066L83.1524 74.498C83.4513 74.6914 83.7677 74.8438 84.0958 74.9492L81.8927 80.1816C81.7579 80.5039 81.4591 80.7207 81.1134 80.75C80.7677 80.7793 80.4337 80.6211 80.2462 80.3281L78.3595 77.4395L75.0724 77.9258C74.7384 77.9727 74.4044 77.8379 74.1935 77.5742C73.9825 77.3105 73.9415 76.9473 74.0704 76.6367H74.0763ZM88.6075 80.1758L86.4044 74.9492C86.7325 74.8438 87.0489 74.6973 87.3478 74.498L88.3907 73.8066C88.4024 73.8008 88.4142 73.7949 88.4317 73.7949L89.6798 73.8711C91.2032 73.959 92.6271 73.1328 93.3126 71.7734L93.8751 70.6543C93.881 70.6426 93.8868 70.6367 93.8985 70.6309L96.4298 76.6367C96.5587 76.9473 96.5118 77.3047 96.3067 77.5742C96.1017 77.8438 95.7618 77.9785 95.4278 77.9258L92.1407 77.4395L90.254 80.3223C90.0665 80.6152 89.7325 80.7734 89.3868 80.7441C89.0411 80.7148 88.7423 80.4922 88.6075 80.1758Z" fill="white"/>
</g>
</g>
<defs>
<filter id="filter0_d_2014_1878" x="0" y="0" width="170.5" height="184" filterUnits="userSpaceOnUse" color-interpolation-filters="sRGB">
<feFlood flood-opacity="0" result="BackgroundImageFix"/>
<feColorMatrix in="SourceAlpha" type="matrix" values="0 0 0 0 0 0 0 0 0 0 0 0 0 0 0 0 0 0 127 0" result="hardAlpha"/>
<feOffset dy="25"/>
<feGaussianBlur stdDeviation="25"/>
<feColorMatrix type="matrix" values="0 0 0 0 0 0 0 0 0 0 0 0 0 0 0 0 0 0 0.25 0"/>
<feBlend mode="normal" in2="BackgroundImageFix" result="effect1_dropShadow_2014_1878"/>
<feBlend mode="normal" in="SourceGraphic" in2="effect1_dropShadow_2014_1878" result="shape"/>
</filter>
<clipPath id="clip0_2014_1878">
<path d="M74 50.75H96.5V80.75H74V50.75Z" fill="white"/>
</clipPath>
</defs>
</svg>
